%TF.GenerationSoftware,KiCad,Pcbnew,(6.0.5)*%
%TF.CreationDate,2022-06-22T13:27:10+07:00*%
%TF.ProjectId,bien-ap-cho-mo-han,6269656e-2d61-4702-9d63-686f2d6d6f2d,rev?*%
%TF.SameCoordinates,Original*%
%TF.FileFunction,Legend,Top*%
%TF.FilePolarity,Positive*%
%FSLAX46Y46*%
G04 Gerber Fmt 4.6, Leading zero omitted, Abs format (unit mm)*
G04 Created by KiCad (PCBNEW (6.0.5)) date 2022-06-22 13:27:10*
%MOMM*%
%LPD*%
G01*
G04 APERTURE LIST*
%ADD10C,0.150000*%
%ADD11C,0.120000*%
G04 APERTURE END LIST*
D10*
%TO.C,R1*%
X130003333Y-82557380D02*
X129670000Y-82081190D01*
X129431904Y-82557380D02*
X129431904Y-81557380D01*
X129812857Y-81557380D01*
X129908095Y-81605000D01*
X129955714Y-81652619D01*
X130003333Y-81747857D01*
X130003333Y-81890714D01*
X129955714Y-81985952D01*
X129908095Y-82033571D01*
X129812857Y-82081190D01*
X129431904Y-82081190D01*
X130955714Y-82557380D02*
X130384285Y-82557380D01*
X130670000Y-82557380D02*
X130670000Y-81557380D01*
X130574761Y-81700238D01*
X130479523Y-81795476D01*
X130384285Y-81843095D01*
%TO.C,J2*%
X124152380Y-94943333D02*
X124866666Y-94943333D01*
X125009523Y-94990952D01*
X125104761Y-95086190D01*
X125152380Y-95229047D01*
X125152380Y-95324285D01*
X124247619Y-94514761D02*
X124200000Y-94467142D01*
X124152380Y-94371904D01*
X124152380Y-94133809D01*
X124200000Y-94038571D01*
X124247619Y-93990952D01*
X124342857Y-93943333D01*
X124438095Y-93943333D01*
X124580952Y-93990952D01*
X125152380Y-94562380D01*
X125152380Y-93943333D01*
%TO.C,J1*%
X146862380Y-94948333D02*
X147576666Y-94948333D01*
X147719523Y-94995952D01*
X147814761Y-95091190D01*
X147862380Y-95234047D01*
X147862380Y-95329285D01*
X147862380Y-93948333D02*
X147862380Y-94519761D01*
X147862380Y-94234047D02*
X146862380Y-94234047D01*
X147005238Y-94329285D01*
X147100476Y-94424523D01*
X147148095Y-94519761D01*
%TO.C,D1*%
X125122380Y-97258095D02*
X124122380Y-97258095D01*
X124122380Y-97020000D01*
X124170000Y-96877142D01*
X124265238Y-96781904D01*
X124360476Y-96734285D01*
X124550952Y-96686666D01*
X124693809Y-96686666D01*
X124884285Y-96734285D01*
X124979523Y-96781904D01*
X125074761Y-96877142D01*
X125122380Y-97020000D01*
X125122380Y-97258095D01*
X125122380Y-95734285D02*
X125122380Y-96305714D01*
X125122380Y-96020000D02*
X124122380Y-96020000D01*
X124265238Y-96115238D01*
X124360476Y-96210476D01*
X124408095Y-96305714D01*
%TO.C,RV1*%
X137834761Y-88877380D02*
X137501428Y-88401190D01*
X137263333Y-88877380D02*
X137263333Y-87877380D01*
X137644285Y-87877380D01*
X137739523Y-87925000D01*
X137787142Y-87972619D01*
X137834761Y-88067857D01*
X137834761Y-88210714D01*
X137787142Y-88305952D01*
X137739523Y-88353571D01*
X137644285Y-88401190D01*
X137263333Y-88401190D01*
X138120476Y-87877380D02*
X138453809Y-88877380D01*
X138787142Y-87877380D01*
X139644285Y-88877380D02*
X139072857Y-88877380D01*
X139358571Y-88877380D02*
X139358571Y-87877380D01*
X139263333Y-88020238D01*
X139168095Y-88115476D01*
X139072857Y-88163095D01*
D11*
%TO.C,R1*%
X116370000Y-85725000D02*
X122300000Y-85725000D01*
X143970000Y-85725000D02*
X138040000Y-85725000D01*
X122300000Y-83105000D02*
X122300000Y-88345000D01*
X122300000Y-88345000D02*
X138040000Y-88345000D01*
X138040000Y-88345000D02*
X138040000Y-83105000D01*
X138040000Y-83105000D02*
X122300000Y-83105000D01*
%TO.C,J2*%
X119715000Y-98220000D02*
X119679000Y-98185000D01*
X113780000Y-89470000D02*
X113780000Y-99750000D01*
X117201000Y-96116000D02*
X117166000Y-96081000D01*
X113540000Y-89230000D02*
X113540000Y-89730000D01*
X123701000Y-89470000D02*
X113780000Y-89470000D01*
X115840000Y-89470000D02*
X115840000Y-99750000D01*
X120741000Y-89470000D02*
X120741000Y-99750000D01*
X119509000Y-98425000D02*
X119463000Y-98378000D01*
X114280000Y-89230000D02*
X113540000Y-89230000D01*
X123701000Y-99750000D02*
X113780000Y-99750000D01*
X123701000Y-89470000D02*
X123701000Y-99750000D01*
X117417000Y-95923000D02*
X117371000Y-95876000D01*
X114340000Y-89470000D02*
X114340000Y-99750000D01*
X119124000Y-90535000D02*
G75*
G03*
X117756958Y-90534573I-684001J-1534993D01*
G01*
X116905000Y-91386000D02*
G75*
G03*
X116759747Y-92098805I1535001J-683999D01*
G01*
X116760000Y-92070000D02*
G75*
G03*
X116905244Y-92753318I1680000J0D01*
G01*
X119975000Y-92754000D02*
G75*
G03*
X119975427Y-91386958I-1534993J684001D01*
G01*
X117756000Y-93605001D02*
G75*
G03*
X119123042Y-93605427I684000J1535001D01*
G01*
X120120000Y-97150000D02*
G75*
G03*
X120120000Y-97150000I-1680000J0D01*
G01*
%TO.C,J1*%
X148409000Y-89475000D02*
X158330000Y-89475000D01*
X154909000Y-93109000D02*
X154944000Y-93144000D01*
X158570000Y-99995000D02*
X158570000Y-99495000D01*
X157770000Y-99755000D02*
X157770000Y-89475000D01*
X152601000Y-90800000D02*
X152647000Y-90847000D01*
X148409000Y-99755000D02*
X158330000Y-99755000D01*
X148409000Y-99755000D02*
X148409000Y-89475000D01*
X158330000Y-99755000D02*
X158330000Y-89475000D01*
X156270000Y-99755000D02*
X156270000Y-89475000D01*
X154693000Y-93302000D02*
X154739000Y-93349000D01*
X152395000Y-91005000D02*
X152431000Y-91040000D01*
X151369000Y-99755000D02*
X151369000Y-89475000D01*
X157830000Y-99995000D02*
X158570000Y-99995000D01*
X155205000Y-97839000D02*
G75*
G03*
X155350253Y-97126195I-1535001J683999D01*
G01*
X154354000Y-95619999D02*
G75*
G03*
X152986958Y-95619573I-684000J-1535001D01*
G01*
X152135000Y-96471000D02*
G75*
G03*
X152134573Y-97838042I1534993J-684001D01*
G01*
X152986000Y-98690000D02*
G75*
G03*
X154353042Y-98690427I684001J1534993D01*
G01*
X155350000Y-97155000D02*
G75*
G03*
X155204756Y-96471682I-1680000J0D01*
G01*
X155350000Y-92075000D02*
G75*
G03*
X155350000Y-92075000I-1680000J0D01*
G01*
%TO.C,D1*%
X128710000Y-98080000D02*
X128866000Y-98080000D01*
X126394000Y-98080000D02*
X126550000Y-98080000D01*
X128865516Y-98080000D02*
G75*
G03*
X128708608Y-94847665I-1235516J1560000D01*
G01*
X126550163Y-95478870D02*
G75*
G03*
X126550000Y-97560961I1079837J-1041130D01*
G01*
X128710000Y-97560961D02*
G75*
G03*
X128709837Y-95478870I-1080000J1040961D01*
G01*
X126551392Y-94847665D02*
G75*
G03*
X126394484Y-98080000I1078608J-1672335D01*
G01*
%TO.C,RV1*%
X143350000Y-95648000D02*
X143350000Y-96195000D01*
X143350000Y-95648000D02*
X143350000Y-99595000D01*
X138309000Y-89554000D02*
X138309000Y-90649000D01*
X138309000Y-89554000D02*
X143350000Y-89554000D01*
X138309000Y-93501000D02*
X138309000Y-95650000D01*
X143350000Y-92955000D02*
X143350000Y-93503000D01*
X138309000Y-93501000D02*
X138309000Y-95650000D01*
X138309000Y-99595000D02*
X143350000Y-99595000D01*
X139667000Y-96195000D02*
X143350000Y-96195000D01*
X138309000Y-98500000D02*
X138309000Y-99595000D01*
X139667000Y-92955000D02*
X143350000Y-92955000D01*
X143350000Y-89554000D02*
X143350000Y-93503000D01*
%TD*%
M02*
